<?xml version="1.0" encoding="UTF-8" standalone="no"?>
<!-- Created with Inkscape (http://www.inkscape.org/) -->

<svg
   version="1.1"
   id="svg2"
   xml:space="preserve"
   width="2666.6667"
   height="2666.6667"
   viewBox="0 0 2666.6667 2666.6667"
   sodipodi:docname="AI FILE.ai"
   xmlns:inkscape="http://www.inkscape.org/namespaces/inkscape"
   xmlns:sodipodi="http://sodipodi.sourceforge.net/DTD/sodipodi-0.dtd"
   xmlns="http://www.w3.org/2000/svg"
   xmlns:svg="http://www.w3.org/2000/svg"><defs
     id="defs6"><clipPath
       clipPathUnits="userSpaceOnUse"
       id="clipPath16"><path
         d="M 0,2000 H 2000 V 0 H 0 Z"
         id="path14" /></clipPath></defs><sodipodi:namedview
     id="namedview4"
     pagecolor="#ffffff"
     bordercolor="#666666"
     borderopacity="1.0"
     inkscape:pageshadow="2"
     inkscape:pageopacity="0.0"
     inkscape:pagecheckerboard="0" /><g
     id="g8"
     inkscape:groupmode="layer"
     inkscape:label="AI FILE"
     transform="matrix(1.3333333,0,0,-1.3333333,0,2666.6667)"><g
       id="g10"><g
         id="g12"
         clip-path="url(#clipPath16)"><g
           id="g18"
           transform="translate(1238.3672,1142.5557)"><path
             d="m 0,0 c -2.36,4.28 -8.09,13.26 -19.189,19.76 -8.411,4.92 -16.341,6.34 -20.981,6.8 -34.44,0.08 -68.87,0.13 -103.3,0.17 -31.719,0.04 -63.44,0.05 -95.17,0.05 -31.73,0 -63.45,-0.01 -95.17,-0.05 -34.43,-0.04 -68.86,-0.09 -103.3,-0.17 -4.64,-0.46 -12.57,-1.88 -20.98,-6.8 -11.1,-6.5 -16.83,-15.48 -19.19,-19.76 -2.81,8.11 -9.96,31.8 2.04,48.17 9.8,13.36 27.59,16.37 38.22,16.38 66.13,0.09 132.25,0.17 198.38,0.26 66.13,-0.09 132.25,-0.17 198.38,-0.26 10.63,-0.01 28.42,-3.02 38.22,-16.38 C 9.96,31.8 2.811,8.11 0,0"
             style="fill:#f7b618;fill-opacity:1;fill-rule:nonzero;stroke:none"
             id="path20" /></g><g
           id="g22"
           transform="translate(986.0957,951.8408)"><path
             d="m 0,0 c 0.67,-58.38 1,-87.71 -20.89,-114.78 -17.78,-22.01 -52.31,-43.79 -88.88,-43.79 -14.56,0 -29.44,3.46 -43.71,11.71 -32.19,18.6 -50.6,56.339 -48.03,97.39 0.31,5 2.8,9.74 7.07,12.369 5.21,3.201 11.43,4.21 17.17,2.54 4.2,-1.21 7.29,-3.62 9.47,-6.019 2.77,-3.04 4.14,-7.15 3.83,-11.25 -0.57,-7.79 -0.13,-20.8 6.01,-35.04 5.06,-11.72 13.08,-21.401 23.35,-27.34 29.22,-16.891 67.79,2.59 84.39,23.13 12.04,14.89 13.18,31.519 12.5,90.649 -0.06,5.171 -0.12,10.351 -0.2,15.521 -9.53,2.2 -22.01,3.83 -36.47,2.67 -19.59,-1.571 -34.63,-7.651 -43.55,-12.071 1.22,6.481 5.31,23.231 20.11,35.841 15.65,13.32 37.85,17.38 59.29,11.6 -0.47,24.22 -1.07,48.48 -1.8,72.66 -0.27,8.83 -7.8,15.63 -16.62,15.14 -14.6,-0.82 -29.22,-0.86 -43.76,-0.12 -15.56,0.8 -28.83,2.4 -39.48,3.68 -28.28,3.38 -31.55,0.81 -33.26,-0.09 -18.36,-9.74 -14.9,-49.18 -13.55,-61.09 -21.61,37.53 -26.78,74.36 -11.42,89.35 11.05,10.77 32.83,12.87 62.72,9.27 10.61,-1.27 22.64,-2.71 36.92,-3.44 24.38,-1.25 49.05,-0.07 73.33,3.5 l 3.51,0.52 c 9.25,1.37 17.63,-5.6 17.96,-14.95 l 0.13,-3.55 C -1.92,109.6 -0.62,54.42 0,0"
             style="fill:#f7b618;fill-opacity:1;fill-rule:nonzero;stroke:none"
             id="path24" /></g><g
           id="g26"
           transform="translate(1214.8652,902.3711)"><path
             d="m 0,0 c 2.57,-41.051 -15.84,-78.79 -48.029,-97.391 -14.271,-8.25 -29.151,-11.71 -43.71,-11.71 -36.571,0 -71.101,21.781 -88.881,43.79 -21.89,27.071 -21.56,56.401 -20.89,114.781 0.62,54.42 1.92,109.599 3.861,164.009 l 0.129,3.55 c 0.331,9.35 8.71,16.321 17.96,14.95 l 3.51,-0.52 c 24.28,-3.569 48.95,-4.75 73.33,-3.5 14.281,0.73 26.31,2.17 36.92,3.44 29.89,3.601 51.67,1.5 62.72,-9.27 15.36,-14.989 10.19,-51.819 -11.42,-89.35 1.351,11.91 4.811,51.35 -13.55,61.091 -1.71,0.9 -4.979,3.469 -33.26,0.089 -10.65,-1.279 -23.919,-2.879 -39.48,-3.68 -14.54,-0.739 -29.159,-0.699 -43.76,0.12 -8.82,0.491 -16.349,-6.31 -16.62,-15.14 -0.729,-24.179 -1.33,-48.44 -1.8,-72.659 21.441,5.779 43.64,1.719 59.29,-11.6 14.8,-12.61 18.89,-29.36 20.111,-35.841 -8.92,4.42 -23.96,10.5 -43.551,12.07 -14.46,1.161 -26.94,-0.469 -36.47,-2.669 -0.08,-5.17 -0.139,-10.35 -0.2,-15.521 -0.68,-59.13 0.46,-75.76 12.5,-90.649 16.601,-20.54 55.17,-40.021 84.391,-23.13 10.269,5.939 18.29,15.62 23.349,27.34 6.14,14.24 6.58,27.25 6.01,35.04 -0.31,4.099 1.061,8.21 3.83,11.25 2.181,2.399 5.271,4.809 9.471,6.019 5.739,1.67 11.96,0.66 17.17,-2.54 C -2.8,9.739 -0.31,5 0,0"
             style="fill:#f7b618;fill-opacity:1;fill-rule:nonzero;stroke:none"
             id="path28" /></g><g
           id="g30"
           transform="translate(1386.5361,1000.3184)"><path
             d="m 0,0 c 0,-213.629 -173.181,-386.809 -386.809,-386.809 -213.628,0 -386.808,173.18 -386.808,386.809 0,213.628 173.18,386.808 386.808,386.808 C -173.181,386.808 0,213.628 0,0 Z"
             style="fill:none;stroke:#f7b618;stroke-width:27;stroke-linecap:butt;stroke-linejoin:miter;stroke-miterlimit:10;stroke-dasharray:none;stroke-opacity:1"
             id="path32" /></g></g></g></g></svg>
